<svg width="314" height="97" viewBox="0 0 314 97" fill="none" xmlns="http://www.w3.org/2000/svg">
<g filter="url(#filter0_d_17_29)">
<path d="M25.2764 84.384C23.7404 84.384 22.9724 83.264 22.9724 81.024C22.9724 80.512 23.0044 79.936 23.0684 79.296C23.1324 78.72 23.2284 78.112 23.3564 77.472C23.7404 75.68 24.4124 73.344 25.3724 70.464C26.3324 67.584 27.4524 64.544 28.7324 61.344C30.0124 58.144 31.2924 55.072 32.5724 52.128C33.8524 49.12 35.0044 46.656 36.0284 44.736C36.8604 43.072 37.8204 41.024 38.9084 38.592C40.0604 36.16 41.2124 33.536 42.3644 30.72C43.5164 27.904 44.6044 25.152 45.6284 22.464C46.6524 19.712 47.4844 17.216 48.1244 14.976C48.7644 12.672 49.1164 10.848 49.1804 9.504C47.3884 13.984 45.3404 17.92 43.0364 21.312C40.7964 24.704 38.3324 27.872 35.6444 30.816C34.3004 32.224 32.6684 33.856 30.7484 35.712C28.8924 37.504 26.9084 39.264 24.7964 40.992C22.7484 42.72 20.7004 44.16 18.6524 45.312C16.6044 46.4 14.7804 46.944 13.1804 46.944C10.3004 46.944 8.22038 46.368 6.94038 45.216C5.72438 44.064 5.02038 42.688 4.82838 41.088V40.32C4.82838 39.616 4.98838 39.168 5.30838 38.976C5.37238 38.912 5.43638 38.88 5.50038 38.88C5.75638 38.88 5.88438 39.168 5.88438 39.744C5.88438 40.448 6.01238 41.216 6.26838 42.048C6.58838 42.88 7.19638 43.296 8.09238 43.296C8.98838 43.296 10.4604 43.04 12.5084 42.528C14.5564 41.952 16.8284 40.96 19.3244 39.552C22.3964 37.824 26.0124 35.136 30.1724 31.488C34.3324 27.84 38.9404 22.72 43.9964 16.128C45.2124 14.528 46.3004 12.736 47.2604 10.752C48.2204 8.768 49.1164 7.008 49.9484 5.472C50.8444 3.936 51.8044 2.944 52.8284 2.496C53.4044 2.24 54.0124 2.112 54.6524 2.112C55.6764 2.112 56.4764 2.528 57.0524 3.36C57.6924 4.128 58.0124 5.344 58.0124 7.008C58.0124 7.84 57.9164 8.8 57.7244 9.888C57.5324 10.912 57.0204 12.48 56.1884 14.592C55.2924 16.704 54.2364 19.104 53.0204 21.792C51.8044 24.416 50.4924 27.2 49.0844 30.144C47.6124 33.152 46.1724 36.064 44.7644 38.88C43.9324 40.416 43.0684 42.08 42.1724 43.872C41.2764 45.6 40.4124 47.264 39.5804 48.864C38.7484 50.4 38.1084 51.648 37.6604 52.608C37.0204 53.888 36.2204 55.584 35.2604 57.696C34.3004 59.744 33.3084 61.856 32.2844 64.032C31.3244 66.144 30.5244 67.968 29.8844 69.504C29.3724 70.72 28.7644 72.096 28.0604 73.632C27.4204 75.232 26.8124 76.672 26.2364 77.952C25.7244 79.296 25.4044 80.16 25.2764 80.544C25.2124 80.736 25.1804 81.024 25.1804 81.408C25.1804 81.792 25.2764 81.984 25.4684 81.984C25.7244 81.984 26.0124 81.696 26.3324 81.12C26.5244 80.864 27.0044 79.904 27.7724 78.24C28.1564 77.28 28.7324 75.936 29.5004 74.208C30.2684 72.544 31.1004 70.72 31.9964 68.736C32.8924 66.752 33.7564 64.896 34.5884 63.168C36.0604 59.904 37.6924 56.48 39.4844 52.896C41.2124 49.376 43.0364 45.824 44.9564 42.24C46.8764 38.656 48.8604 35.264 50.9084 32.064C53.9804 27.264 56.7964 23.072 59.3564 19.488C61.9164 15.904 64.3804 12.928 66.7484 10.56C69.1164 8.25599 71.4844 6.528 73.8524 5.376C76.2204 4.16 78.7164 3.55199 81.3404 3.55199C84.9884 3.55199 88.1564 4.608 90.8444 6.72C93.5964 8.832 95.7084 11.744 97.1804 15.456C98.6524 19.104 99.3884 23.232 99.3884 27.84C99.3884 32.128 98.5884 36.448 96.9884 40.8C95.3884 45.152 93.2124 49.344 90.4604 53.376C87.7724 57.408 84.6044 61.184 80.9564 64.704C77.3084 68.288 73.4364 71.36 69.3404 73.92C65.1804 76.544 60.8924 78.592 56.4764 80.064C52.1244 81.6 47.8684 82.368 43.7084 82.368C40.8284 82.368 38.4284 81.952 36.5084 81.12C34.5244 80.352 33.2764 79.712 32.7644 79.2C32.1884 78.624 31.9004 78.144 31.9004 77.76C31.9004 77.568 31.9644 77.472 32.0924 77.472C32.2204 77.472 32.5404 77.632 33.0524 77.952C33.7564 78.464 35.0364 78.816 36.8924 79.008C38.8124 79.2 40.7004 79.296 42.5564 79.296C45.8204 79.296 49.2444 78.496 52.8284 76.896C56.4764 75.296 60.0284 73.216 63.4844 70.656C67.0044 68.096 70.2364 65.312 73.1804 62.304C76.1244 59.232 78.5884 56.288 80.5724 53.472C84.3484 47.904 87.3564 42.4 89.5964 36.96C91.9004 31.52 93.0524 26.528 93.0524 21.984C93.0524 19.36 92.7004 16.928 91.9964 14.688C91.2924 12.384 90.1084 10.56 88.4444 9.216C86.7804 7.80799 84.5084 7.10399 81.6284 7.10399C80.0284 7.10399 78.3324 7.584 76.5404 8.544C74.8124 9.44 73.1164 10.592 71.4524 12C69.7884 13.408 68.2204 14.912 66.7484 16.512C65.3404 18.048 64.1244 19.456 63.1004 20.736C57.5964 28.096 52.2524 35.776 47.0684 43.776C41.8844 51.712 37.5004 60.128 33.9164 69.024C33.5324 70.048 33.0524 71.392 32.4764 73.056C31.9004 74.784 31.2284 76.512 30.4604 78.24C29.6924 79.968 28.8604 81.408 27.9644 82.56C27.0684 83.776 26.1724 84.384 25.2764 84.384ZM104.975 72.384C102.799 72.384 100.975 71.456 99.5031 69.6C98.0951 67.744 97.3911 65.376 97.3911 62.496C97.3911 60.192 97.7751 57.92 98.5431 55.68C99.3111 53.504 100.335 51.424 101.615 49.44C102.959 47.456 104.463 45.6 106.127 43.872C108.303 41.632 110.767 39.68 113.519 38.016C116.335 36.352 118.895 35.52 121.199 35.52C122.991 35.52 124.367 35.968 125.327 36.864C126.351 37.696 126.863 38.72 126.863 39.936C126.863 40.704 126.607 41.536 126.095 42.432C127.759 42.624 129.391 42.72 130.991 42.72C132.207 42.72 133.423 42.656 134.639 42.528C135.855 42.4 137.071 42.208 138.287 41.952H138.671C139.183 41.952 139.439 42.08 139.439 42.336C139.439 42.592 139.151 42.816 138.575 43.008C137.935 43.264 136.879 43.52 135.407 43.776C133.935 44.032 132.399 44.256 130.799 44.448C129.199 44.576 127.759 44.64 126.479 44.64C126.031 44.64 125.647 44.64 125.327 44.64C125.007 44.64 124.719 44.608 124.463 44.544L123.503 45.024C124.271 46.112 124.655 47.616 124.655 49.536C124.655 52.096 124.015 54.72 122.735 57.408C121.519 60.032 119.887 62.496 117.839 64.8C115.855 67.04 113.711 68.864 111.407 70.272C109.167 71.68 107.023 72.384 104.975 72.384ZM105.839 70.08C107.567 70.08 109.263 69.472 110.927 68.256C112.591 66.976 114.095 65.344 115.439 63.36C116.847 61.312 117.999 59.136 118.895 56.832C119.855 54.464 120.495 52.192 120.815 50.016C120.879 49.632 120.911 49.28 120.911 48.96C120.911 48.576 120.911 48.224 120.911 47.904C120.911 47.328 120.879 46.816 120.815 46.368C120.751 45.856 120.623 45.472 120.431 45.216C120.303 45.216 120.207 45.184 120.143 45.12C119.375 44.992 118.799 44.8 118.415 44.544C118.095 44.288 117.711 44 117.263 43.68C117.007 43.36 116.879 42.976 116.879 42.528C116.879 42.08 117.039 41.728 117.359 41.472C117.743 41.216 118.159 41.152 118.607 41.28C120.207 41.6 121.935 41.888 123.791 42.144C124.431 41.056 124.751 40.064 124.751 39.168C124.751 37.632 123.599 36.864 121.295 36.864C119.887 36.864 118.415 37.408 116.879 38.496C115.407 39.52 113.935 40.896 112.463 42.624C110.991 44.288 109.583 46.144 108.239 48.192C106.895 50.176 105.743 52.128 104.783 54.048C104.143 55.328 103.567 56.896 103.055 58.752C102.607 60.608 102.383 62.4 102.383 64.128C102.383 65.728 102.639 67.136 103.151 68.352C103.727 69.504 104.623 70.08 105.839 70.08ZM136.272 74.88C133.52 74.88 131.568 74.048 130.416 72.384C129.264 70.72 128.688 68.608 128.688 66.048C128.688 64.192 128.912 62.176 129.36 60C129.872 57.76 130.48 55.616 131.184 53.568C131.952 51.52 132.688 49.792 133.392 48.384C134.672 45.76 136.208 43.104 138 40.416C139.792 37.664 141.712 35.168 143.76 32.928C145.808 30.688 147.92 28.896 150.096 27.552C152.336 26.144 154.512 25.44 156.624 25.44C158.48 25.44 159.856 26.112 160.752 27.456C161.712 28.736 162.192 30.24 162.192 31.968C162.192 33.824 161.68 35.488 160.656 36.96C158.544 40.032 157.008 41.568 156.048 41.568C155.728 41.568 155.568 41.344 155.568 40.896C155.568 40.448 155.824 39.552 156.336 38.208C156.592 37.632 156.912 36.8 157.296 35.712C157.68 34.56 158 33.408 158.256 32.256C158.576 31.04 158.704 29.984 158.64 29.088C158.448 29.024 158.16 28.992 157.776 28.992C156.432 28.992 154.96 29.536 153.36 30.624C151.824 31.712 150.256 33.12 148.656 34.848C147.056 36.576 145.584 38.4 144.24 40.32C142.896 42.176 141.776 43.904 140.88 45.504C140.176 46.784 139.408 48.352 138.576 50.208C137.744 52 136.944 53.92 136.176 55.968C135.472 57.952 134.928 59.776 134.544 61.44C134.288 62.336 134.096 63.232 133.968 64.128C133.84 65.024 133.776 65.888 133.776 66.72C133.776 68.128 134.032 69.312 134.544 70.272C135.12 71.232 136.08 71.712 137.424 71.712C139.664 71.712 141.84 71.2 143.952 70.176C146.128 69.152 148.176 67.84 150.096 66.24C152.016 64.64 153.776 63.008 155.376 61.344C156.72 60 157.904 58.624 158.928 57.216C159.12 57.024 159.28 56.928 159.408 56.928C159.792 56.928 159.984 57.216 159.984 57.792C159.984 58.112 159.856 58.4 159.6 58.656L155.376 63.648C154.032 65.248 152.304 66.944 150.192 68.736C148.08 70.464 145.808 71.904 143.376 73.056C140.944 74.272 138.576 74.88 136.272 74.88ZM162.175 85.824C159.679 85.824 157.759 84.8 156.415 82.752C155.071 80.768 154.399 77.92 154.399 74.208C154.399 73.568 154.431 72.928 154.495 72.288C154.495 71.648 154.527 70.976 154.591 70.272C154.975 67.136 155.935 63.712 157.471 60C159.071 56.288 161.503 52.32 164.767 48.096C166.943 45.28 169.311 43.168 171.871 41.76C174.431 40.352 176.895 39.648 179.263 39.648C180.927 39.648 182.399 39.968 183.679 40.608C185.215 41.44 185.983 42.944 185.983 45.12C185.983 46.72 185.407 48.512 184.255 50.496C183.103 52.416 181.151 54.272 178.399 56.064C174.751 58.368 171.711 59.904 169.279 60.672C166.847 61.44 164.895 61.856 163.423 61.92C162.911 62.624 162.399 63.744 161.887 65.28C161.375 66.752 160.927 68.32 160.543 69.984C160.223 71.584 159.999 73.024 159.871 74.304C159.871 74.56 159.839 74.816 159.775 75.072C159.775 75.392 159.775 75.712 159.775 76.032C159.775 77.952 160.095 79.584 160.735 80.928C161.439 82.336 162.655 83.04 164.383 83.04C165.919 83.04 167.647 82.464 169.567 81.312C171.487 80.224 173.375 78.88 175.231 77.28C177.151 75.744 178.815 74.24 180.223 72.768C181.695 71.36 182.719 70.304 183.295 69.6L190.399 61.344L194.239 56.928C194.431 56.736 194.591 56.64 194.719 56.64C195.103 56.64 195.295 56.896 195.295 57.408C195.295 57.6 195.135 57.92 194.815 58.368C194.175 59.264 193.439 60.192 192.607 61.152C191.839 62.112 191.103 63.008 190.399 63.84C189.503 64.864 188.383 66.176 187.039 67.776C185.759 69.376 184.383 71.04 182.911 72.768C181.503 74.496 180.127 76 178.783 77.28C176.351 79.648 173.727 81.664 170.911 83.328C168.159 84.992 165.247 85.824 162.175 85.824ZM164.287 60.384C165.183 60.32 166.303 59.968 167.647 59.328C168.991 58.688 170.399 57.92 171.871 57.024C173.343 56.128 174.687 55.232 175.903 54.336C177.183 53.376 178.207 52.576 178.975 51.936C180.447 50.784 181.535 49.504 182.239 48.096C182.943 46.688 183.295 45.472 183.295 44.448C183.295 43.744 183.103 43.136 182.719 42.624C182.399 42.112 181.887 41.856 181.183 41.856C179.839 41.856 178.367 42.528 176.767 43.872C175.231 45.152 173.663 46.816 172.063 48.864C170.527 50.848 169.055 52.896 167.647 55.008C166.303 57.056 165.183 58.848 164.287 60.384ZM191.958 88.896C190.742 88.896 189.686 88.384 188.79 87.36C187.894 86.336 187.446 84.736 187.446 82.56C187.446 81.344 187.574 80.096 187.83 78.816C188.918 72.8 190.614 66.464 192.918 59.808C195.222 53.152 198.102 46.56 201.558 40.032C197.526 41.376 194.198 42.048 191.574 42.048C190.358 42.048 189.462 41.952 188.886 41.76C188.31 41.504 188.022 41.248 188.022 40.992C188.022 40.608 188.63 40.448 189.846 40.512C190.102 40.576 190.326 40.608 190.518 40.608C190.774 40.608 191.03 40.608 191.286 40.608C192.822 40.608 194.55 40.384 196.47 39.936C198.39 39.424 200.438 38.752 202.614 37.92C206.07 31.584 209.878 25.6 214.038 19.968C218.262 14.272 222.774 9.216 227.574 4.8C229.238 3.328 230.934 2.17599 232.662 1.34399C234.454 0.447994 236.086 -5.72205e-06 237.558 -5.72205e-06C238.838 -5.72205e-06 239.926 0.351995 240.822 1.056C241.718 1.76 242.326 2.944 242.646 4.608C242.71 4.864 242.742 5.152 242.742 5.472C242.806 5.792 242.838 6.112 242.838 6.432C242.838 7.648 242.582 8.96 242.07 10.368C240.47 14.4 237.238 18.464 232.374 22.56C230.006 24.608 227.478 26.528 224.79 28.32C222.102 30.112 219.286 31.808 216.342 33.408C213.398 35.008 210.55 36.384 207.798 37.536C205.686 41.184 203.734 44.896 201.942 48.672C200.15 52.448 198.614 56.16 197.334 59.808C195.99 63.52 194.934 67.104 194.166 70.56C193.398 73.952 192.982 77.152 192.918 80.16C192.918 82.976 193.622 84.384 195.03 84.384C195.862 84.384 196.918 84.064 198.198 83.424C200.182 82.272 201.878 81.088 203.286 79.872C204.694 78.656 206.134 77.216 207.606 75.552C208.31 74.72 209.302 73.504 210.582 71.904C211.926 70.24 213.366 68.48 214.902 66.624C216.438 64.704 217.91 62.944 219.318 61.344C220.598 59.808 221.878 58.336 223.158 56.928C223.35 56.736 223.51 56.64 223.638 56.64C224.022 56.64 224.214 56.896 224.214 57.408C224.214 57.728 224.086 58.048 223.83 58.368C223.126 59.264 222.358 60.192 221.526 61.152C220.758 62.112 220.022 63.008 219.318 63.84C218.934 64.224 218.23 65.056 217.206 66.336C216.182 67.552 214.966 69.024 213.558 70.752C212.15 72.416 210.71 74.112 209.238 75.84C207.766 77.632 206.39 79.264 205.11 80.736C203.894 82.208 202.902 83.328 202.134 84.096C200.726 85.44 199.19 86.56 197.526 87.456C195.926 88.416 194.07 88.896 191.958 88.896ZM209.334 34.944C212.47 33.408 215.67 31.584 218.934 29.472C222.198 27.296 225.302 24.992 228.246 22.56C231.19 20.064 233.718 17.536 235.83 14.976C237.942 12.416 239.414 9.92 240.246 7.488C240.502 6.72 240.63 5.952 240.63 5.184C240.63 3.2 239.83 2.20799 238.23 2.20799C237.206 2.20799 236.15 2.65599 235.062 3.55199C230.774 6.944 226.39 11.392 221.91 16.896C217.43 22.4 213.238 28.416 209.334 34.944ZM241.761 30.048C240.097 30.048 239.265 29.248 239.265 27.648C239.265 26.688 239.617 25.888 240.321 25.248C241.025 24.544 241.793 24.192 242.625 24.192C243.457 24.192 244.097 24.48 244.545 25.056C245.057 25.632 245.249 26.336 245.121 27.168C244.929 28 244.513 28.704 243.873 29.28C243.297 29.792 242.593 30.048 241.761 30.048ZM226.209 72C222.881 72 221.217 69.92 221.217 65.76C221.217 64.864 221.313 63.84 221.505 62.688C221.761 61.344 222.241 59.744 222.945 57.888C223.713 55.968 224.545 54.08 225.441 52.224C226.401 50.304 227.265 48.672 228.033 47.328C228.673 46.304 229.409 45.088 230.241 43.68C231.073 42.272 231.873 40.96 232.641 39.744C233.409 38.528 233.889 37.728 234.081 37.344C234.465 36.512 235.233 35.872 236.385 35.424C237.537 34.912 238.561 34.656 239.457 34.656C240.481 34.656 240.993 34.944 240.993 35.52C240.993 35.904 240.865 36.256 240.609 36.576C239.393 38.56 237.953 40.864 236.289 43.488C234.689 46.112 233.121 48.8 231.585 51.552C230.049 54.304 228.769 56.928 227.745 59.424C226.721 61.92 226.209 64.064 226.209 65.856C226.209 66.816 226.369 67.584 226.689 68.16C227.073 68.736 227.745 69.024 228.705 69.024C229.729 69.024 230.881 68.544 232.161 67.584C233.505 66.56 234.785 65.44 236.001 64.224C237.281 62.944 238.241 61.952 238.881 61.248L240.801 59.232C241.121 58.912 241.409 58.592 241.665 58.272C241.921 57.888 242.177 57.536 242.433 57.216C242.625 57.024 242.785 56.928 242.913 56.928C243.297 56.928 243.489 57.216 243.489 57.792C243.489 58.112 243.361 58.4 243.105 58.656C242.401 59.552 241.697 60.416 240.993 61.248C240.289 62.08 239.553 62.912 238.785 63.744C237.185 65.664 235.329 67.52 233.217 69.312C231.105 71.104 228.769 72 226.209 72ZM240.559 88.896C239.343 88.896 238.287 88.384 237.391 87.36C236.495 86.336 236.047 84.736 236.047 82.56C236.047 81.344 236.175 80.096 236.431 78.816C236.559 78.176 236.815 76.928 237.199 75.072C237.583 73.216 238.031 71.328 238.543 69.408C239.119 67.04 239.919 64.352 240.943 61.344C241.967 58.272 243.215 55.04 244.687 51.648C245.775 48.96 246.895 46.432 248.047 44.064C249.199 41.696 250.351 39.392 251.503 37.152H238.255C237.551 37.152 237.199 36.992 237.199 36.672C237.199 35.968 237.903 35.616 239.311 35.616H252.367C253.967 32.736 255.631 30.016 257.359 27.456C259.087 24.896 261.007 22.496 263.119 20.256C264.207 18.976 265.199 18.08 266.095 17.568C267.055 17.056 268.015 16.704 268.975 16.512C269.999 16.256 271.119 16 272.335 15.744C269.391 19.328 266.799 22.72 264.559 25.92C262.383 29.056 260.335 32.288 258.415 35.616H272.623C273.391 35.616 273.775 35.808 273.775 36.192C273.775 36.384 273.583 36.608 273.199 36.864C272.879 37.056 272.367 37.152 271.663 37.152H257.551C256.015 39.84 254.543 42.688 253.135 45.696C251.727 48.64 250.223 51.872 248.623 55.392C247.279 58.336 246.063 61.504 244.975 64.896C243.951 68.224 243.119 71.296 242.479 74.112C241.839 76.928 241.519 78.944 241.519 80.16C241.519 83.104 242.319 84.576 243.919 84.576C244.687 84.576 245.647 84.192 246.799 83.424C249.295 81.888 251.535 80.288 253.519 78.624C255.503 77.024 257.391 75.328 259.183 73.536C260.143 72.64 261.263 71.488 262.543 70.08C263.887 68.672 265.231 67.232 266.575 65.76C267.919 64.288 269.103 62.976 270.127 61.824L271.759 60C271.951 59.808 272.111 59.712 272.239 59.712C272.623 59.712 272.815 59.968 272.815 60.48C272.815 60.8 272.687 61.12 272.431 61.44C272.111 61.952 271.759 62.432 271.375 62.88C270.927 63.328 270.511 63.808 270.127 64.32C267.375 67.712 264.335 71.136 261.007 74.592C257.679 78.048 254.255 81.216 250.735 84.096C249.263 85.248 247.727 86.336 246.127 87.36C244.527 88.384 242.671 88.896 240.559 88.896ZM292.765 72.384C290.205 72.384 288.925 70.72 288.925 67.392C288.925 66.24 289.117 64.96 289.501 63.552C289.629 63.104 289.917 62.368 290.365 61.344C290.813 60.32 291.325 59.2 291.901 57.984C292.477 56.704 293.021 55.52 293.533 54.432C294.045 53.28 294.397 52.384 294.589 51.744C293.245 53.792 291.741 55.84 290.077 57.888C288.477 59.872 286.749 61.536 284.893 62.88C283.037 64.224 281.053 64.896 278.941 64.896C276.957 64.832 275.549 64.288 274.717 63.264C273.885 62.24 273.469 60.992 273.469 59.52C273.469 57.792 273.853 55.904 274.621 53.856C275.389 51.808 276.253 49.984 277.213 48.384C278.877 45.76 280.893 43.2 283.261 40.704C285.629 38.208 288.157 36.16 290.845 34.56C293.533 32.896 296.093 32.064 298.525 32.064C299.805 32.064 301.053 32.288 302.269 32.736C303.485 33.12 304.701 33.792 305.917 34.752C306.877 35.52 307.357 36.352 307.357 37.248C307.357 38.144 306.973 38.592 306.205 38.592C305.629 38.592 305.213 38.208 304.957 37.44C304.125 35.264 302.781 34.176 300.925 34.176C299.261 34.176 297.405 34.912 295.357 36.384C293.309 37.856 291.293 39.616 289.309 41.664C287.069 43.904 285.085 46.368 283.357 49.056C281.629 51.744 280.317 54.176 279.421 56.352C278.589 58.336 278.173 59.808 278.173 60.768C278.173 61.984 278.653 62.592 279.613 62.592C280.701 62.592 282.301 61.76 284.413 60.096C285.821 59.008 287.357 57.6 289.021 55.872C290.685 54.08 292.253 52.32 293.725 50.592C295.197 48.864 296.349 47.52 297.181 46.56C297.885 45.472 298.461 44.608 298.909 43.968C299.165 43.584 299.581 43.296 300.157 43.104C300.733 42.912 301.341 42.816 301.981 42.816C302.749 42.816 303.389 42.976 303.901 43.296C304.413 43.552 304.541 43.968 304.285 44.544C304.029 45.12 303.453 46.24 302.557 47.904C301.725 49.504 300.765 51.328 299.677 53.376C298.653 55.424 297.661 57.376 296.701 59.232C295.805 61.088 295.133 62.528 294.685 63.552C293.789 65.536 293.341 67.008 293.341 67.968C293.341 68.8 293.661 69.216 294.301 69.216C294.749 69.216 295.421 68.96 296.317 68.448C297.725 67.744 299.133 66.752 300.541 65.472C301.949 64.128 303.293 62.72 304.573 61.248C305.277 60.544 305.917 59.872 306.493 59.232C307.069 58.592 307.613 57.92 308.125 57.216C308.317 57.024 308.477 56.928 308.605 56.928C308.989 56.928 309.181 57.216 309.181 57.792C309.181 58.112 309.053 58.4 308.797 58.656C308.093 59.552 307.389 60.416 306.685 61.248C305.981 62.08 305.245 62.912 304.477 63.744C303.773 64.576 303.037 65.408 302.269 66.24C301.565 67.008 300.829 67.744 300.061 68.448C298.653 69.792 297.309 70.784 296.029 71.424C294.813 72.064 293.725 72.384 292.765 72.384Z" fill="white"/>
</g>
<defs>
<filter id="filter0_d_17_29" x="0.828369" y="0" width="312.353" height="96.896" filterUnits="userSpaceOnUse" color-interpolation-filters="sRGB">
<feFlood flood-opacity="0" result="BackgroundImageFix"/>
<feColorMatrix in="SourceAlpha" type="matrix" values="0 0 0 0 0 0 0 0 0 0 0 0 0 0 0 0 0 0 127 0" result="hardAlpha"/>
<feOffset dy="4"/>
<feGaussianBlur stdDeviation="2"/>
<feComposite in2="hardAlpha" operator="out"/>
<feColorMatrix type="matrix" values="0 0 0 0 0 0 0 0 0 0 0 0 0 0 0 0 0 0 0.25 0"/>
<feBlend mode="normal" in2="BackgroundImageFix" result="effect1_dropShadow_17_29"/>
<feBlend mode="normal" in="SourceGraphic" in2="effect1_dropShadow_17_29" result="shape"/>
</filter>
</defs>
</svg>
