<svg width="50" height="50" viewBox="0 0 50 50" fill="none" xmlns="http://www.w3.org/2000/svg">
<path fill-rule="evenodd" clip-rule="evenodd" d="M43.8912 0C47.2628 0 50 2.7373 50 6.10879V43.8912C50 47.2627 47.2627 50 43.8912 50H6.10879C2.7373 50 0 47.2627 0 43.8912V6.10879C0 2.7373 2.73721 0 6.10879 0L43.8912 0ZM19.0937 41.4594C32.3689 41.4594 39.6276 30.4591 39.6276 20.9254C39.6276 20.6111 39.6276 20.2968 39.6127 19.9975C41.0195 18.9798 42.2468 17.7076 43.2196 16.2559C41.9325 16.8246 40.5406 17.2138 39.0739 17.3934C40.5706 16.4953 41.708 15.0885 42.2468 13.3973C40.855 14.2204 39.3134 14.8191 37.6671 15.1483C36.35 13.7415 34.4792 12.8734 32.3989 12.8734C28.4178 12.8734 25.1851 16.1063 25.1851 20.0873C25.1851 20.6561 25.2449 21.2098 25.3796 21.7336C19.378 21.4343 14.0649 18.5607 10.5029 14.1905C9.88926 15.2531 9.53008 16.4953 9.53008 17.8124C9.53008 20.3118 10.8022 22.5269 12.7479 23.814C11.5655 23.784 10.458 23.4548 9.48516 22.9159V23.0058C9.48516 26.5079 11.9696 29.4114 15.2772 30.0849C14.6786 30.2495 14.0351 30.3394 13.3765 30.3394C12.9125 30.3394 12.4636 30.2944 12.0146 30.2046C12.9275 33.0782 15.5915 35.1585 18.7494 35.2184C16.28 37.1491 13.167 38.3015 9.78457 38.3015C9.20088 38.3015 8.63213 38.2716 8.06338 38.1967C11.2213 40.2621 15.0228 41.4594 19.0937 41.4594Z" fill="white"/>
</svg>
